/* XPM */
static char *close_normal[] = {
/* columns rows colors chars-per-pixel */
"18 18 2 1 ",
"  c #777777",
". c None",
/* pixels */
"..................",
"..................",
"...    ....    ...",
"...    ....    ...",
"...    ....    ...",
"...    ....    ...",
".......    .......",
".......    .......",
".......    .......",
".......    .......",
"...    ....    ...",
"...    ....    ...",
"...    ....    ...",
"...    ....    ...",
"..................",
"..................",
"..................",
".................."
};
