/* XPM */
static char *floating_focus_active[] = {
/* columns rows colors chars-per-pixel */
"22 22 3 1 ",
". c #0099CC",
"* c #E1C381",
"  c None",
/* pixels */
"                      ",
"                      ",
"                      ",
"                      ",
"         ****         ",
"         ****         ",
"         ****         ",
"         ****         ",
"                      ",
"    ****      ****    ",
"    ****      ****    ",
"    ****      ****    ",
"    ****      ****    ",
"                      ",
"         ****         ",
"         ****         ",
"         ****         ",
"         ****         ",
"                      ",
"                      ",
"......................",
"......................"
};
