/* XPM */
static char *maximized_focus_active[] = {
/* columns rows colors chars-per-pixel */
"22 22 3 1 ",
". c #0099CC",
"* c #8AE181",
"  c None",
/* pixels */
"                      ",
"                      ",
"                      ",
"                      ",
"    ****      ****    ",
"    ****      ****    ",
"    ****      ****    ",
"    ****      ****    ",
"                      ",
"                      ",
"                      ",
"                      ",
"                      ",
"                      ",
"              ****    ",
"              ****    ",
"              ****    ",
"              ****    ",
"                      ",
"                      ",
"......................",
"......................"
};
