/* XPM */
static char *minimized_normal_inactive[] = {
/* columns rows colors chars-per-pixel */
"18 18 2 1 ",
"  c #777777",
". c None",
/* pixels */
"..................",
"..................",
"..................",
"..................",
"..................",
"..................",
"...            ...",
"...            ...",
"...            ...",
"...            ...",
"..................",
"..................",
"..................",
"..................",
"..................",
"..................",
"..................",
".................."
};
