/* XPM */
static char *minimized_focus_inactive[] = {
/* columns rows colors chars-per-pixel */
"18 18 2 1 ",
"  c #8AE181",
". c None",
/* pixels */
"..................",
"..................",
"..................",
"..................",
"..................",
"..................",
"...            ...",
"...            ...",
"...            ...",
"...            ...",
"..................",
"..................",
"..................",
"..................",
"..................",
"..................",
"..................",
".................."
};
