/* XPM */
static char *minimized_focus_inactive[] = {
/* columns rows colors chars-per-pixel */
"22 22 2 1 ",
"* c #8AE181",
"  c None",
/* pixels */
"                      ",
"                      ",
"                      ",
"                      ",
"                      ",
"                      ",
"                      ",
"                      ",
"                      ",
"    ****      ****    ",
"    ****      ****    ",
"    ****      ****    ",
"    ****      ****    ",
"                      ",
"                      ",
"                      ",
"                      ",
"                      ",
"                      ",
"                      ",
"                      ",
"                      "
};
