/* XPM */
static char *none_normal[] = {
/* columns rows colors chars-per-pixel */
"18 18 2 1 ",
"  c gray60",
". c None",
/* pixels */
"..................",
"..................",
"..................",
"..................",
"..................",
"..................",
".......    .......",
".......    .......",
".......    .......",
".......    .......",
"..................",
"..................",
"..................",
"..................",
"..................",
"..................",
"..................",
".................."
};
