/* XPM */
static char *none_normal[] = {
/* columns rows colors chars-per-pixel */
"22 22 2 1 ",
"* c #777777",
"  c None",
/* pixels */
"                      ",
"                      ",
"                      ",
"                      ",
"                      ",
"                      ",
"                      ",
"                      ",
"                      ",
"         ****         ",
"         ****         ",
"         ****         ",
"         ****         ",
"                      ",
"                      ",
"                      ",
"                      ",
"                      ",
"                      ",
"                      ",
"                      ",
"                      "
};
