/* XPM */
static char *ontop_normal_active[] = {
/* columns rows colors chars-per-pixel */
"18 18 3 1 ",
"  c #0099CC",
". c #777777",
"X c None",
/* pixels */
"XXXXXXXXXXXXXXXXXX",
"XXXXXXXXXXXXXXXXXX",
"XXXXXXXXXXXXXXXXXX",
"XXXXXXXXXXXXXXXXXX",
"XXXXXXXXXXXXXXXXXX",
"XXXXXXXXXXXXXXXXXX",
"XXXXXXX....XXXXXXX",
"XXXXXXX....XXXXXXX",
"XXXXXXX....XXXXXXX",
"XXXXXXX....XXXXXXX",
"XXX....XXXX....XXX",
"XXX....XXXX....XXX",
"XXX....XXXX....XXX",
"XXX....XXXX....XXX",
"XXXXXXXXXXXXXXXXXX",
"                  ",
"                  ",
"XXXXXXXXXXXXXXXXXX"
};
