/* XPM */
static char *sticky_normal_inactive[] = {
/* columns rows colors chars-per-pixel */
"18 18 2 1 ",
"  c #949FA7",
". c None",
/* pixels */
"..................",
"..................",
"...    ....    ...",
"...    ....    ...",
"...    ....    ...",
"...    ....    ...",
"..................",
"..................",
"..................",
"..................",
"...    ....    ...",
"...    ....    ...",
"...    ....    ...",
"...    ....    ...",
"..................",
"..................",
"..................",
".................."
};
