/* XPM */
static char *sticky_focus_active[] = {
/* columns rows colors chars-per-pixel */
"18 18 3 1 ",
"  c #0099CC",
". c #81B7E1",
"X c None",
/* pixels */
"XXXXXXXXXXXXXXXXXX",
"XXXXXXXXXXXXXXXXXX",
"XXX....XXXX....XXX",
"XXX....XXXX....XXX",
"XXX....XXXX....XXX",
"XXX....XXXX....XXX",
"XXXXXXXXXXXXXXXXXX",
"XXXXXXXXXXXXXXXXXX",
"XXXXXXXXXXXXXXXXXX",
"XXXXXXXXXXXXXXXXXX",
"XXX....XXXX....XXX",
"XXX....XXXX....XXX",
"XXX....XXXX....XXX",
"XXX....XXXX....XXX",
"XXXXXXXXXXXXXXXXXX",
"XXXXXXXXXXXXXXXXXX",
"                  ",
"                  "
};
