/* XPM */
static char *sticky_focus_inactive[] = {
/* columns rows colors chars-per-pixel */
"22 22 2 1 ",
"* c #81B7E1",
"  c None",
/* pixels */
"                      ",
"                      ",
"                      ",
"                      ",
"    ****      ****    ",
"    ****      ****    ",
"    ****      ****    ",
"    ****      ****    ",
"                      ",
"                      ",
"                      ",
"                      ",
"                      ",
"                      ",
"    ****      ****    ",
"    ****      ****    ",
"    ****      ****    ",
"    ****      ****    ",
"                      ",
"                      ",
"                      ",
"                      "
};
