/* XPM */
static char *sticky_normal_inactive[] = {
/* columns rows colors chars-per-pixel */
"22 22 2 1 ",
"* c #777777",
"  c None",
/* pixels */
"                      ",
"                      ",
"                      ",
"                      ",
"    ****      ****    ",
"    ****      ****    ",
"    ****      ****    ",
"    ****      ****    ",
"                      ",
"                      ",
"                      ",
"                      ",
"                      ",
"                      ",
"    ****      ****    ",
"    ****      ****    ",
"    ****      ****    ",
"    ****      ****    ",
"                      ",
"                      ",
"                      ",
"                      "
};
