/* XPM */
static char *dwindle[] = {
/* columns rows colors chars-per-pixel */
"18 18 3 1 ",
"  c #0099CC",
". c white",
"X c None",
/* pixels */
"XXXXXXXXXXXXXXXXXX",
"X                X",
"X XXXXXXX XXXXXX X",
"X X....XX XXXXXX X",
"X X..XXXX XXXXXX X",
"X X.X.XXX XXXXXX X",
"X X.XX.XX XXXXXX X",
"X XXXXX.X XXXXXX X",
"X XXXXXXX        X",
"X XXXXXXX XX XXX X",
"X XXXXX.X XX XXX X",
"X X.XX.XX XX XXX X",
"X X.X.XXX XX     X",
"X X..XXXX XX XXX X",
"X X....XX XX XXX X",
"X XXXXXXX XX XXX X",
"X                X",
"XXXXXXXXXXXXXXXXXX"
};
