/* XPM */
static char dwindle[] = {
/* columns rows colors chars-per-pi el */
"22 22 3 1 ",
"* c #0099CC",
". c white",
"  c None",
/* pixels */
"                      ",
" ******************** ",
" *        *         * ",
" * .....  *         * ",
" * ..     *         * ",
" * . .    *         * ",
" * .  .   *         * ",
" * .   .  *         * ",
" *      . *         * ",
" *        *         * ",
" *        *********** ",
" *        *    *    * ",
" *        *    *    * ",
" *      . *    *    * ",
" * .   .  *    *    * ",
" * .  .   *    ****** ",
" * . .    *    *    * ",
" * ..     *    *    * ",
" * .....  *    *    * ",
" *        *    *    * ",
" ******************** ",
"                      "
};
