/* XPM */
static char *fairh[] = {
/* columns rows colors chars-per-pixel */
"22 22 3 1 ",
"* c #0099CC",
". c white",
"  c None",
/* pixels */
"                      ",
" .......************* ",
" .     .      *     * ",
" .     .      *     * ",
" .     .      *     * ",
" .     .      *     * ",
" .     .      *     * ",
" .......************* ",
" *     *      *     * ",
" *     *      *     * ",
" *     *      *     * ",
" *     *      *     * ",
" *     *      *     * ",
" ******************** ",
" *        *         * ",
" *        *         * ",
" *        *         * ",
" *        *         * ",
" *        *         * ",
" *        *         * ",
" ******************** ",
"                      "
};
