/* XPM */
static char *fairv[] = {
/* columns rows colors chars-per-pixel */
"18 18 3 1 ",
"  c #0099CC",
". c white",
"X c None",
/* pixels */
"XXXXXXXXXXXXXXXXXX",
"X                X",
"X .... XXXX XXXX X",
"X .XX. XXXX XXXX X",
"X .XX. XXXX XXXX X",
"X .XX. XXXX XXXX X",
"X .XX.           X",
"X .XX. XXXX XXXX X",
"X .... XXXX XXXX X",
"X      XXXX XXXX X",
"X XXXX XXXX XXXX X",
"X XXXX           X",
"X XXXX XXXX XXXX X",
"X XXXX XXXX XXXX X",
"X XXXX XXXX XXXX X",
"X XXXX XXXX XXXX X",
"X                X",
"XXXXXXXXXXXXXXXXXX"
};
