/* XPM */
static char *tileleft[] = {
/* columns rows colors chars-per-pixel */
"18 18 3 1 ",
"  c #0099CC",
". c white",
"X c None",
/* pixels */
"XXXXXXXXXXXXXXXXXX",
"X                X",
"X XXXXX XXXXXXXX X",
"X XXXXX XXX....X X",
"X XXXXX XXXXX..X X",
"X XXXXX XXXX.X.X X",
"X       XXX.XX.X X",
"X XXXXX XX.XXXXX X",
"X XXXXX XXXXXXXX X",
"X XXXXX XXXXXXXX X",
"X XXXXX XX.XXXXX X",
"X       XXX.XX.X X",
"X XXXXX XXXX.X.X X",
"X XXXXX XXXXX..X X",
"X XXXXX XXX....X X",
"X XXXXX XXXXXXXX X",
"X                X",
"XXXXXXXXXXXXXXXXXX"
};
