/* XPM */
static char *application_icon[] = {
/* columns rows colors chars-per-pixel */
"22 22 4 1 ",
"# c #0099CC",
"* c #E18181",
". c white",
"  c None",
/* pixels */
"                      ",
" #################### ",
" #                **# ",
" #                **# ",
" #################### ",
" #                  # ",
" #                  # ",
" #                  # ",
" #                  # ",
" # .....            # ",
" #                  # ",
" #                  # ",
" # ..........       # ",
" #                  # ",
" # .......          # ",
" #                  # ",
" # .............    # ",
" #                  # ",
" # ........         # ",
" #                  # ",
" #################### ",
"                      "
};
