/* XPM */
static char *awesome_icon[] = {
/* columns rows colors chars-per-pixel */
"22 22 3 1 ",
"  c None",
"# c white",
". c #81B7E1",
/* pixels */
"                      ",
" #################### ",
" #..................# ",
" #..................# ",
" #..................# ",
" #..................# ",
" ##############.....# ",
"              #.....# ",
"              #.....# ",
" ##############.....# ",
" #..................# ",
" #..................# ",
" #....#########.....# ",
" #....#       #.....# ",
" #....#       #.....# ",
" #....######  #.....# ",
" #.........#  #.....# ",
" #.........#  #.....# ",
" #.........#  #.....# ",
" #.........#  #.....# ",
" ###########  ####### ",
"                      "
};
