/* XPM */
static char *calendar_icon[] = {
/* columns rows colors chars-per-pixel */
"18 18 4 1 ",
"  c None",
"* c white",
"# c #E1C381",
". c black",
/* pixels */
"                  ",
"    **      **    ",
"    **      **    ",
"    **      **    ",
" ## ** #### ** ## ",
" ##    ####    ## ",
" ################ ",
" ################ ",
" ###..##..##..### ",
" ###..##..##..### ",
" ################ ",
" ###..##..##..### ",
" ###..##..##..### ",
" ################ ",
" ###..##..####### ",
" ###..##..####### ",
" ################ ",
"                  "
};
