/* XPM */
static char *mail_notify[] = {
/* columns rows colors chars-per-pixel */
"48 48 2 1 ",
"  c white",
". c None",
/* pixels */
"................................................",
"................................................",
"................................................",
"................................................",
"................................................",
"..                                ..............",
".                                 ..............",
".                                 ..............",
".                                 ..............",
".                                 ..............",
"..                               ...............",
"....                           .................",
"......                       ...................",
".  .....                   ...... ..............",
".    .....               ......   ..............",
".      .....           ......     ..............",
".        .....       ......       ..............",
".          .....   ......         ..............",
".            ..........           ..............",
".              ......             ..............",
".                ..               ..............",
".                                 ..............",
".                                 ..............",
".                                 ..............",
".                                 ..............",
".                                 ..............",
".                                 ..............",
".                                 ....  ........",
".                                 ....  ........",
".                                 ....  ........",
"......................................  ........",
"......................................  ........",
"......................................  ........",
"......................................  ........",
"...............................                .",
"................................               .",
"......................................  ........",
"......................................  ........",
"......................................  ........",
"......................................  ........",
"......................................  ........",
"......................................  ........",
"......................................  ........",
"................................................",
"................................................",
"................................................",
"................................................",
"................................................"
};
