/* XPM */
static char *mem[] = {
/* columns rows colors chars-per-pixel */
"18 18 3 1 ",
"  c None",
". c #E1C381",
"# c #9981E1",
/* pixels */
"                  ",
"                  ",
"  .. .. .. .. ..  ",
"  .. .. .. .. ..  ",
"                  ",
" ################ ",
" ################ ",
" ################ ",
" ##############   ",
" ##############   ",
" ################ ",
" ################ ",
" ################ ",
"                  ",
"  .. .. .. .. ..  ",
"  .. .. .. .. ..  ",
"                  ",
"                  ",
};
