/* XPM */
static char *net_up[] = {
/* columns rows colors chars-per-pixel */
"21 32 32 1 ",
"  c gray19",
". c gray21",
"X c #373737",
"o c #3C3C3C",
"O c gray26",
"+ c gray36",
"@ c #848484",
"# c #868686",
"$ c gray55",
"% c #929292",
"& c gray61",
"* c #A7A7A7",
"= c gray66",
"- c gray68",
"; c #AFAFAF",
": c gray69",
"> c gray71",
", c #B7B7B7",
"< c gray76",
"1 c gray77",
"2 c #C5C5C5",
"3 c gray81",
"4 c LightGray",
"5 c gray83",
"6 c #D7D7D7",
"7 c #E6E6E6",
"8 c #EFEFEF",
"9 c #F8F8F8",
"0 c #F9F9F9",
"q c #FEFEFE",
"w c white",
"e c None",
/* pixels */
"eeeeeeeeeeeeeeeeeeeee",
"eeeeeeeeeeeeeeeeeeeee",
"eeeeeeeeeeeeeeeeeeeee",
"eeeeeeeeeeeeeeeeeeeee",
"eeeeeeeeeeeeeeeeeeeee",
"                     ",
"                     ",
"                     ",
"                     ",
"                     ",
"                     ",
"          &6         ",
"        .:ww3o       ",
"       .=wwww2O      ",
"       :wwwwww2o     ",
"      <wwwwwwww5     ",
"      :w849q57w1     ",
"       *@#0q-+>X     ",
"         $0q;        ",
"         $0q;        ",
"         %ww,        ",
"                     ",
"                     ",
"                     ",
"                     ",
"                     ",
"                     ",
"eeeeeeeeeeeeeeeeeeeee",
"eeeeeeeeeeeeeeeeeeeee",
"eeeeeeeeeeeeeeeeeeeee",
"eeeeeeeeeeeeeeeeeeeee",
"eeeeeeeeeeeeeeeeeeeee"
};
