/* XPM */
static char *net_down[] = {
/* columns rows colors chars-per-pixel */
"22 32 33 1 ",
"  c gray19",
". c #323232",
"X c #3C3C3C",
"o c gray26",
"O c gray27",
"+ c #4C4C4C",
"@ c #515151",
"# c #6C6C6C",
"$ c gray52",
"% c #868686",
"& c gray55",
"* c #929292",
"= c #9A9A9A",
"- c gray68",
"; c #AEAEAE",
": c #AFAFAF",
"> c #C5C5C5",
", c gray80",
"< c gray81",
"1 c #D2D2D2",
"2 c LightGray",
"3 c #D7D7D7",
"4 c gray85",
"5 c gray87",
"6 c gray89",
"7 c #E7E7E7",
"8 c gray91",
"9 c #F8F8F8",
"0 c #F9F9F9",
"q c gray99",
"w c #FEFEFE",
"e c white",
"r c None",
/* pixels */
"rrrrrrrrrrrrrrrrrrrrrr",
"rrrrrrrrrrrrrrrrrrrrrr",
"rrrrrrrrrrrrrrrrrrrrrr",
"rrrrrrrrrrrrrrrrrrrrrr",
"rrrrrrrrrrrrrrrrrrrrrr",
"                      ",
"                      ",
"                      ",
"                      ",
"                      ",
"                      ",
"         &0w:         ",
"         &0w:         ",
"         &0w:         ",
"       %#$0w-+*.      ",
"      =q6>9w,2e;      ",
"      3eeeeeeee8      ",
"       <eeeeee5O      ",
"       X>eeee4@       ",
"        o>ee5@        ",
"         X17O         ",
"                      ",
"                      ",
"                      ",
"                      ",
"                      ",
"                      ",
"rrrrrrrrrrrrrrrrrrrrrr",
"rrrrrrrrrrrrrrrrrrrrrr",
"rrrrrrrrrrrrrrrrrrrrrr",
"rrrrrrrrrrrrrrrrrrrrrr",
"rrrrrrrrrrrrrrrrrrrrrr"
};
