/* XPM */
static char *none_icon[] = {
/* columns rows colors chars-per-pixel */
"18 18 2 1 ",
"  c #78A4FF",
". c None",
/* pixels */
"..................",
"..................",
"..              ..",
"..              ..",
"..              ..",
"..              ..",
"............    ..",
"..              ..",
"..              ..",
"..              ..",
"..              ..",
"..    ......    ..",
"..         .    ..",
"..         .    ..",
"..         .    ..",
"..         .    ..",
"..................",
".................."
};
