/* XPM */
static char *none_icon[] = {
/* columns rows colors chars-per-pixel */
"16 16 2 1 ",
"  c #78A4FF",
". c None",
/* pixels */
"................",
".              .",
".              .",
".              .",
".              .",
"...........    .",
".              .",
".              .",
".              .",
".              .",
".    ......    .",
".         .    .",
".         .    .",
".         .    .",
".         .    .",
"................"
};
