/* XPM */
static char *session_icon[] = {
/* columns rows colors chars-per-pixel */
"22 22 3 1 ",
"  c None",
"# c white",
"* c #9981E1",
/* pixels */
"                      ",
"         ****         ",
"        ******        ",
"       ********       ",
"      **********      ",
"     ****    ****     ",
"    ****      ****    ",
"   ****        ****   ",
"  ****                ",
" ****                 ",
" ****     ########### ",
" ****     ########### ",
" ****                 ",
"  ****                ",
"   ****        ****   ",
"    ****      ****    ",
"     ****    ****     ",
"      **********      ",
"       ********       ",
"        ******        ",
"         ****         ",
"                      "
};
