/* XPM */
static char *speaker_icon[] = {
/* columns rows colors chars-per-pixel */
"18 18 4 1 ",
"  c None",
"# c white",
". c #8AE181",
"* c #E1C381",
/* pixels */
"                  ",
"      #    .      ",
"     #*     .     ",
"    #**   .  .    ",
"   #***    .  .   ",
"  #****     .  .  ",
" #*****   .  .  . ",
" #*****#   .  . . ",
" #*****##   . . . ",
" #*****##   . . . ",
" #*****#   .  . . ",
" #*****   .  .  . ",
"  #****     .  .  ",
"   #***    .  .   ",
"    #**   .  .    ",
"     #*     .     ",
"      #    .      ",
"                  "
};
