/* XPM */
static char *stop[] = {
/* columns rows colors chars-per-pixel */
"22 32 4 1 ",
"  c gray19",
". c #FEFEFE",
"X c white",
"o c None",
/* pixels */
"oooooooooooooooooooooo",
"oooooooooooooooooooooo",
"oooooooooooooooooooooo",
"oooooooooooooooooooooo",
"oooooooooooooooooooooo",
"                      ",
"                      ",
"                      ",
"                      ",
"                      ",
"                      ",
"                      ",
"       .XXXXXXX       ",
"       .XXXXXXX       ",
"       .XXXXXXX       ",
"       .XXXXXXX       ",
"       .XXXXXXX       ",
"       .XXXXXXX       ",
"       .XXXXXXX       ",
"       XXXXXXXX       ",
"                      ",
"                      ",
"                      ",
"                      ",
"                      ",
"                      ",
"                      ",
"oooooooooooooooooooooo",
"oooooooooooooooooooooo",
"oooooooooooooooooooooo",
"oooooooooooooooooooooo",
"oooooooooooooooooooooo"
};
