/* XPM */
static char *awesome_icon[] = {
/* columns rows colors chars-per-pixel */
"44 32 3 1 ",
"  c gray19",
". c white",
"X c None",
/* pixels */
"XXXXXXXXXXXXXXXXXXXXXXXXXXXXXXXXXXXXXXXXXXXX",
"XXXXXXXXXXXXXXXXXXXXXXXXXXXXXXXXXXXXXXXXXXXX",
"XXXXXXXXXXXXXXXXXXXXXXXXXXXXXXXXXXXXXXXXXXXX",
"XXXXXXXXXXXXXXXXXXXXXXXXXXXXXXXXXXXXXXXXXXXX",
"XXXXXXXXXXXXXXXXXXXXXXXXXXXXXXXXXXXXXXXXXXXX",
"XXX                                      XXX",
"XXX                                      XXX",
"XXX          ..................          XXX",
"XXX          ..................          XXX",
"XXX          ..................          XXX",
"XXX          ..................          XXX",
"XXX          ..................          XXX",
"XXX                      ......          XXX",
"XXX          ..................          XXX",
"XXX          ..................          XXX",
"XXX          ..................          XXX",
"XXX          ..................          XXX",
"XXX          ..................          XXX",
"XXX          .....       ......          XXX",
"XXX          ........... ......          XXX",
"XXX          ........... ......          XXX",
"XXX          ........... ......          XXX",
"XXX          ........... ......          XXX",
"XXX          ........... ......          XXX",
"XXX          ........... ......          XXX",
"XXX                                      XXX",
"XXX                                      XXX",
"XXXXXXXXXXXXXXXXXXXXXXXXXXXXXXXXXXXXXXXXXXXX",
"XXXXXXXXXXXXXXXXXXXXXXXXXXXXXXXXXXXXXXXXXXXX",
"XXXXXXXXXXXXXXXXXXXXXXXXXXXXXXXXXXXXXXXXXXXX",
"XXXXXXXXXXXXXXXXXXXXXXXXXXXXXXXXXXXXXXXXXXXX",
"XXXXXXXXXXXXXXXXXXXXXXXXXXXXXXXXXXXXXXXXXXXX"
};
