/* XPM */
static char *bar[] = {
/* columns rows colors chars-per-pixel */
"5 32 3 1 ",
"  c gray19",
". c gray60",
"X c None",
/* pixels */
"XXXXX",
"XXXXX",
"XXXXX",
"XXXXX",
"XXXXX",
"     ",
"     ",
"     ",
"     ",
"  .  ",
"  .  ",
"  .  ",
"  .  ",
"  .  ",
"  .  ",
"  .  ",
"  .  ",
"  .  ",
"  .  ",
"  .  ",
"  .  ",
"  .  ",
"  .  ",
"     ",
"     ",
"     ",
"     ",
"XXXXX",
"XXXXX",
"XXXXX",
"XXXXX",
"XXXXX"
};
