/* XPM */
static char *bar[] = {
/* columns rows colors chars-per-pixel */
"15 18 2 1 ",
"  c None",
". c gray60",
/* pixels */
"               ",
"               ",
"       .       ",
"       .       ",
"       .       ",
"       .       ",
"       .       ",
"       .       ",
"       .       ",
"       .       ",
"       .       ",
"       .       ",
"       .       ",
"       .       ",
"       .       ",
"       .       ",
"               ",
"               ",
};
