/* XPM */
static char *bar_empty[] = {
/* columns rows colors chars-per-pixel */
"5 18 2 1 ",
"  c gray60",
". c None",
/* pixels */
".....",
".....",
".....",
".. ..",
".. ..",
".. ..",
".. ..",
".. ..",
".. ..",
".. ..",
".. ..",
".. ..",
".. ..",
".. ..",
".. ..",
".....",
".....",
"....."
};
