/* XPM */
static char *base_widget[] = {
/* columns rows colors chars-per-pixel */
"22 32 2 1 ",
"  c #303030",
". c None",
/* pixels */
"......................",
"......................",
"......................",
"......................",
"......................",
"                      ",
"                      ",
"                      ",
"                      ",
"                      ",
"                      ",
"                      ",
"                      ",
"                      ",
"                      ",
"                      ",
"                      ",
"                      ",
"                      ",
"                      ",
"                      ",
"                      ",
"                      ",
"                      ",
"                      ",
"                      ",
"                      ",
"......................",
"......................",
"......................",
"......................",
"......................"
};
