/* XPM */
static char *cal[] = {
/* columns rows colors chars-per-pixel */
"22 32 13 1 ",
"  c gray19",
". c #494949",
"X c gray39",
"o c gray44",
"O c gray49",
"+ c gray54",
"@ c #979797",
"# c #B1B1B1",
"$ c gray",
"% c #D8D8D8",
"& c gray95",
"* c white",
"= c None",
/* pixels */
"======================",
"======================",
"======================",
"======================",
"======================",
"                      ",
"                      ",
"                      ",
"                      ",
"                      ",
"        *@  @*        ",
"     @@.*@OO@*.@@     ",
"     **+*@&&@*+**     ",
"     **&@$**$@&**     ",
"     ************     ",
"     ************     ",
"     **XX*++*XX**     ",
"     **##*##*##**     ",
"     ************     ",
"     **XX*XX*o%**     ",
"     **##*##*&***     ",
"     ************     ",
"                      ",
"                      ",
"                      ",
"                      ",
"                      ",
"======================",
"======================",
"======================",
"======================",
"======================"
};
