/* XPM */
static char *clock[] = {
/* columns rows colors chars-per-pixel */
"18 18 3 1 ",
"  c None",
"& c white",
"* c #81B7E1",
/* pixels */
"        **        ",
"        **        ",
"    **      **    ",
"    **  &&  **    ",
"        &&        ",
" **     &&     ** ",
" **     &&     ** ",
"        &&        ",
"**      &&      **",
"**      &&&     **",
"         &&&      ",
" **       &&&  ** ",
" **        &&  ** ",
"                  ",
"    **      **    ",
"    **      **    ",
"        **        ",
"        **        "
};
