/* XPM */
static char *clock[] = {
/* columns rows colors chars-per-pixel */
"18 18 11 1 ",
"  c None",
". c #3C3C3C",
"X c #494949",
"o c #565656",
"O c #979797",
"+ c #B1B1B1",
"@ c #CBCBCB",
"# c #D8D8D8",
"$ c gray90",
"% c gray95",
"& c white",
/* pixels */
"                  ",
"                  ",
"                  ",
"     X+%&&%+X     ",
"    o%&%@@%&%o    ",
"   X%&O    O&%X   ",
"   +&O  &@  O&+   ",
"   %%   &@   %%   ",
"   &@   &$.  @&   ",
"   &@   @&#. @&   ",
"   %%   .#+  %%   ",
"   +&O   .  O&+   ",
"   X%&O    O&%X   ",
"    o%&%@@%&%o    ",
"     X+%&&%+X     ",
"                  ",
"                  ",
"                  ",
};
