/* XPM */
static char *cpu[] = {
/* columns rows colors chars-per-pixel */
"18 18 3 1 ",
"  c None",
". c #E1C381",
"# c #81B7E1",
/* pixels */
"                  ",
"                  ",
"     .. .. ..     ",
"     .. .. ..     ",
"                  ",
"  .. ######## ..  ",
"  .. #####  # ..  ",
"     #####  #     ",
"  .. ######## ..  ",
"  .. ######## ..  ",
"     ########     ",
"  .. ######## ..  ",
"  .. ######## ..  ",
"                  ",
"     .. .. ..     ",
"     .. .. ..     ",
"                  ",
"                  ",
};
