/* XPM */
static char *cpu[] = {
/* columns rows colors chars-per-pixel */
"22 32 10 1 ",
"  c #303030",
". c #3C3C3C",
"X c #494949",
"o c #565656",
"O c gray54",
"+ c #B1B1B1",
"@ c #D8D8D8",
"# c gray95",
"$ c #FFFFFF",
"% c None",
/* pixels */
"%%%%%%%%%%%%%%%%%%%%%%",
"%%%%%%%%%%%%%%%%%%%%%%",
"%%%%%%%%%%%%%%%%%%%%%%",
"%%%%%%%%%%%%%%%%%%%%%%",
"%%%%%%%%%%%%%%%%%%%%%%",
"                      ",
"                      ",
"                      ",
"                      ",
"                      ",
"         X$$X         ",
"      o@O+$$+O@o      ",
"      @$$$$$$$$@      ",
"      O$$$$$$$$O      ",
"     X+$$+  +$$+X     ",
"     $$$$    $$$$     ",
"     $$$#   .$$$$     ",
"     X+$$+  +$$+X     ",
"      O$$$$$$$$O      ",
"      @$$$$$$$$@      ",
"      o@O+$$+O@o      ",
"         X$$X         ",
"                      ",
"                      ",
"                      ",
"                      ",
"                      ",
"%%%%%%%%%%%%%%%%%%%%%%",
"%%%%%%%%%%%%%%%%%%%%%%",
"%%%%%%%%%%%%%%%%%%%%%%",
"%%%%%%%%%%%%%%%%%%%%%%",
"%%%%%%%%%%%%%%%%%%%%%%"
};
