/* XPM */
static char *floating[] = {
/* columns rows colors chars-per-pixel */
"18 18 3 1 ",
"  c #0099CC",
". c #FFFFFF",
"X c None",
/* pixels */
"XXXXXXXXXXXXXXXXXX",
"XXXX             X",
"XXXX XXXXXXXXXXX X",
"XXXX XXXXXXXXXXX X",
"XXXX XXXXXXXXXXX X",
"XXXX XXXXXXXXXXX X",
"XXXX XXXXXXXXXXX X",
"XXXX XXXXXXXXXXX X",
"XXXX XXXXXXXXXXX X",
"X........XXXXXXX X",
"X.XXXXXX.XXXXXXX X",
"X.XXXXXX.XXXXXXX X",
"X.XXXXXX.XXXXXXX X",
"X.XXXXXX.        X",
"X.XXXXXX.XXXXXXXXX",
"X.XXXXXX.XXXXXXXXX",
"X........XXXXXXXXX",
"XXXXXXXXXXXXXXXXXX"
};
