/* XPM */
static char *mem[] = {
/* columns rows colors chars-per-pixel */
"18 18 4 1 ",
"  c None",
"* c #E18181",
"# c #8AE181",
"% c #81B7E1",
/* pixels */
"                  ",
"                  ",
"  #### %%%%%%%%%  ",
"  #### %%%%%%%%%  ",
"                  ",
"                  ",
"  **** %%%%%%%%%  ",
"  **** %%%%%%%%%  ",
"                  ",
"                  ",
"  #### %%%%%%%%%  ",
"  #### %%%%%%%%%  ",
"                  ",
"                  ",
"  #### %%%%%%%%%  ",
"  #### %%%%%%%%%  ",
"                  ",
"                  ",
};
