/* XPM */
static char *keyboard[] = {
/* columns rows colors chars-per-pixel */
"32 32 41 1 ",
"  c #131313",
". c gray8",
"X c #151515",
"o c #202020",
"O c gray13",
"+ c #232323",
"@ c gray14",
"# c #252525",
"$ c gray16",
"% c gray18",
"& c #2F2F2F",
"* c gray19",
"= c gray28",
"- c #515151",
"; c gray61",
": c gray62",
"> c #9F9F9F",
", c gray65",
"< c #A7A7A7",
"1 c gray66",
"2 c #ADADAD",
"3 c #B2B2B2",
"4 c gray72",
"5 c gray74",
"6 c gray76",
"7 c #C8C8C8",
"8 c #CDCDCD",
"9 c LightGray",
"0 c #D8D8D8",
"q c #DDDDDD",
"w c gray87",
"e c gray88",
"r c #E2E2E2",
"t c #E3E3E3",
"y c #E4E4E4",
"u c #E7E7E7",
"i c gray93",
"p c #EEEEEE",
"a c gray94",
"s c #F6F6F6",
"d c None",
/* pixels */
"dddddddddddddddddddddddddddddddd",
"dddddddddddddddddddddddddddddddd",
"dddddddddddddddddddddddddddddddd",
"dddddddddddddddddddddddddddddddd",
"dddddddddddddddddddddddddddddddd",
"********************************",
"********************************",
"********************************",
"********************************",
"********************************",
"******%$@@@@@@@@@@@@@@@#$&******",
"******$>assssssssssssssp:$******",
"******#ryttttttttttttttyu@******",
"******@wq  q  q  q  q  qw@******",
"******@00++0++0++0++0++00@******",
"******@99ii9ii9ii9ii9ii99@******",
"******@88  8  8  8  8  88@******",
"******@77++7++7++7++7++77@******",
"******@66uu6uu6uu6uu6uu66@******",
"******@55  5        5  55@******",
"******@44++4++++++++4++44@******",
"******@13ee3eeeeeeee3ee3,#******",
"******$=;22222222222222<-$******",
"******&OX              .o&******",
"********************************",
"********************************",
"********************************",
"dddddddddddddddddddddddddddddddd",
"dddddddddddddddddddddddddddddddd",
"dddddddddddddddddddddddddddddddd",
"dddddddddddddddddddddddddddddddd",
"dddddddddddddddddddddddddddddddd"
};
