/* XPM */
static char *last[] = {
/* columns rows colors chars-per-pixel */
"11 32 2 1 ",
"  c gray19",
". c None",
/* pixels */
"...........",
"...........",
"...........",
"...........",
"...........",
"        ...",
"        ...",
"        ...",
"        ...",
"        ...",
"        ...",
"        ...",
"        ...",
"        ...",
"        ...",
"        ...",
"        ...",
"        ...",
"        ...",
"        ...",
"        ...",
"        ...",
"        ...",
"        ...",
"        ...",
"        ...",
"        ...",
"...........",
"...........",
"...........",
"...........",
"..........."
};
