/* XPM */
static char *mpd[] = {
/* columns rows colors chars-per-pixel */
"25 32 42 1 ",
"  c gray19",
". c #313131",
"X c #343434",
"o c gray22",
"O c #3A3A3A",
"+ c #414141",
"@ c #4C4C4C",
"# c gray31",
"$ c #6D6D6D",
"% c #7C7C7C",
"& c gray53",
"* c #929292",
"= c #979797",
"- c #9D9D9D",
"; c #A2A2A2",
": c gray64",
"> c #A4A4A4",
", c gray65",
"< c #A9A9A9",
"1 c gray67",
"2 c gray68",
"3 c #AEAEAE",
"4 c #B2B2B2",
"5 c gray72",
"6 c gray73",
"7 c #C1C1C1",
"8 c #CACACA",
"9 c gray81",
"0 c #D2D2D2",
"q c LightGray",
"w c #D8D8D8",
"e c gainsboro",
"r c #E1E1E1",
"t c #E2E2E2",
"y c gray90",
"u c gray91",
"i c #E9E9E9",
"p c gray94",
"a c #F3F3F3",
"s c #F6F6F6",
"d c white",
"f c None",
/* pixels */
"fffffffffffffffffffffffff",
"fffffffffffffffffffffffff",
"fffffffffffffffffffffffff",
"fffffffffffffffffffffffff",
"fffffffffffffffffffffffff",
"                         ",
"                         ",
"                         ",
"                         ",
"                         ",
"                         ",
"          O>ads2+        ",
"         o7dr5ed8+       ",
"         $d6   1d%.      ",
"         2p#   @y4X      ",
"         3i     e<       ",
"        =9y     0w-      ",
"        ddt     9dd      ",
"        ddt     9dd      ",
"        ddu     qdd      ",
"        ;;*     &:,      ",
"                         ",
"                         ",
"                         ",
"                         ",
"                         ",
"                         ",
"fffffffffffffffffffffffff",
"fffffffffffffffffffffffff",
"fffffffffffffffffffffffff",
"fffffffffffffffffffffffff",
"fffffffffffffffffffffffff"
};
