/* XPM */
static char *next[] = {
/* columns rows colors chars-per-pixel */
"22 32 40 1 ",
"  c black",
". c gray19",
"X c #313131",
"o c #373737",
"O c #3A3A3A",
"+ c gray23",
"@ c gray28",
"# c #4C4C4C",
"$ c #4E4E4E",
"% c #505050",
"& c #565656",
"* c #5A5A5A",
"= c gray48",
"- c #7B7B7B",
"; c gray49",
": c #818181",
"> c #868686",
", c gray63",
"< c gray66",
"1 c #AAAAAA",
"2 c #B4B4B4",
"3 c gray72",
"4 c #B9B9B9",
"5 c gray73",
"6 c #BBBBBB",
"7 c #C0C0C0",
"8 c gray76",
"9 c gray80",
"0 c gray81",
"q c gray83",
"w c gray86",
"e c gainsboro",
"r c gray88",
"t c #E4E4E4",
"y c gray92",
"u c #EEEEEE",
"i c #F3F3F3",
"p c #F8F8F8",
"a c #FEFEFE",
"s c white",
/* pixels */
"                      ",
"                      ",
"                      ",
"                      ",
"                      ",
"......................",
"......................",
"......................",
"......................",
"......................",
"......................",
"......................",
"......8....1#.........",
"......s9$..5s:o.......",
"......sst;.4ss2%......",
"......sssi<0ssaw=.....",
"......sssaqesssa,.....",
"......ssp3@5ssr-......",
"......sy>O.5s6*.......",
"......u&X..7>+........",
"......................",
"......................",
"......................",
"......................",
"......................",
"......................",
"......................",
"                      ",
"                      ",
"                      ",
"                      ",
"                      "
};
