/* XPM */
static char *pause[] = {
/* columns rows colors chars-per-pixel */
"22 32 4 1 ",
"  c #303030",
". c #FEFEFE",
"X c #FFFFFF",
"o c None",
/* pixels */
"oooooooooooooooooooooo",
"oooooooooooooooooooooo",
"oooooooooooooooooooooo",
"oooooooooooooooooooooo",
"oooooooooooooooooooooo",
"                      ",
"                      ",
"                      ",
"                      ",
"                      ",
"                      ",
"                      ",
"      .XX  XXX        ",
"      .XX  XXX        ",
"      .XX  XXX        ",
"      .XX  XXX        ",
"      .XX  XXX        ",
"      .XX  XXX        ",
"      .XX  XXX        ",
"      XXX  XXX        ",
"                      ",
"                      ",
"                      ",
"                      ",
"                      ",
"                      ",
"                      ",
"oooooooooooooooooooooo",
"oooooooooooooooooooooo",
"oooooooooooooooooooooo",
"oooooooooooooooooooooo",
"oooooooooooooooooooooo"
};
