/* XPM */
static char *play[] = {
/* columns rows colors chars-per-pixel */
"22 32 21 1 ",
"  c #303030",
". c gray21",
"X c #373737",
"o c gray24",
"O c gray33",
"+ c #565656",
"@ c gray43",
"# c #747474",
"$ c #818181",
"% c gray53",
"& c #AFAFAF",
"* c gray69",
"= c #B1B1B1",
"- c #D8D8D8",
"; c #DDDDDD",
": c gray87",
"> c gray98",
", c #FBFBFB",
"< c #FEFEFE",
"1 c #FFFFFF",
"2 c None",
/* pixels */
"2222222222222222222222",
"2222222222222222222222",
"2222222222222222222222",
"2222222222222222222222",
"2222222222222222222222",
"                      ",
"                      ",
"                      ",
"                      ",
"                      ",
"                      ",
"                      ",
"        -X            ",
"        1>#.          ",
"        11,*O         ",
"        111<:%        ",
"        1111<=        ",
"        111;$o        ",
"        11&+          ",
"        >@X           ",
"                      ",
"                      ",
"                      ",
"                      ",
"                      ",
"                      ",
"                      ",
"2222222222222222222222",
"2222222222222222222222",
"2222222222222222222222",
"2222222222222222222222",
"2222222222222222222222"
};
