/* XPM */
static char *power_icon[] = {
/* columns rows colors chars-per-pixel */
"18 18 3 1 ",
"  c None",
". c #E18181",
"# c white",
/* pixels */
"                  ",
"                  ",
"        ##        ",
"        ##        ",
"        ##        ",
"  ..    ##    ..  ",
"  ..    ##    ..  ",
"  ..    ##    ..  ",
"  ..    ##    ..  ",
"  ..    ##    ..  ",
"  ..          ..  ",
"  ..          ..  ",
"  ..          ..  ",
"  ..          ..  ",
"  ..............  ",
"  ..............  ",
"                  ",
"                  "
};
