/* XPM */
static char *awesome_icon[] = {
/* columns rows colors chars-per-pixel */
"32 32 3 1 ",
"  c gray19",
". c white",
"X c None",
/* pixels */
"XXXXXXXXXXXXXXXXXXXXXXXXXXXXXXXX",
"XXXXXXXXXXXXXXXXXXXXXXXXXXXXXXXX",
"XXXXXXXXXXXXXXXXXXXXXXXXXXXXXXXX",
"XXXXXXXXXXXXXXXXXXXXXXXXXXXXXXXX",
"XXXXXXXXXXXXXXXXXXXXXXXXXXXXXXXX",
"                                ",
"                                ",
"               ..               ",
"               ..               ",
"               ..               ",
"         ..    ..    ..         ",
"        ...    ..    ...        ",
"        ..     ..     ..        ",
"       ..      ..      ..       ",
"       ..      ..      ..       ",
"       ..      ..      ..       ",
"       ..      ..      ..       ",
"       ..              ..       ",
"       ..              ..       ",
"        ..            ..        ",
"        ...          ...        ",
"         ...        ...         ",
"          ...      ...          ",
"           ..........           ",
"             ......             ",
"                                ",
"                                ",
"XXXXXXXXXXXXXXXXXXXXXXXXXXXXXXXX",
"XXXXXXXXXXXXXXXXXXXXXXXXXXXXXXXX",
"XXXXXXXXXXXXXXXXXXXXXXXXXXXXXXXX",
"XXXXXXXXXXXXXXXXXXXXXXXXXXXXXXXX",
"XXXXXXXXXXXXXXXXXXXXXXXXXXXXXXXX"
};
