/* XPM */
static char *prev[] = {
/* columns rows colors chars-per-pixel */
"22 32 40 1 ",
"  c gray19",
". c #313131",
"X c #373737",
"o c #3A3A3A",
"O c gray23",
"+ c gray28",
"@ c #4C4C4C",
"# c #4E4E4E",
"$ c #505050",
"% c #565656",
"& c #5A5A5A",
"* c gray48",
"= c #7B7B7B",
"- c gray49",
"; c #818181",
": c #868686",
"> c gray63",
", c gray66",
"< c #AAAAAA",
"1 c #B4B4B4",
"2 c gray72",
"3 c #B9B9B9",
"4 c gray73",
"5 c #BBBBBB",
"6 c #C0C0C0",
"7 c gray76",
"8 c gray80",
"9 c gray81",
"0 c gray83",
"q c gray86",
"w c gainsboro",
"e c gray88",
"r c #E4E4E4",
"t c gray92",
"y c #EEEEEE",
"u c #F3F3F3",
"i c #F8F8F8",
"p c #FEFEFE",
"a c white",
"s c None",
/* pixels */
"ssssssssssssssssssssss",
"ssssssssssssssssssssss",
"ssssssssssssssssssssss",
"ssssssssssssssssssssss",
"ssssssssssssssssssssss",
"                      ",
"                      ",
"                      ",
"                      ",
"                      ",
"                      ",
"                      ",
"         @<    7      ",
"       X;a4  #8a      ",
"      $1aa3 -raa      ",
"     *qpaa9,uaaa      ",
"     >paaaw0paaa      ",
"      =eaa4+2iaa      ",
"       &5a4 o:ta      ",
"        O:6  .%y      ",
"                      ",
"                      ",
"                      ",
"                      ",
"                      ",
"                      ",
"                      ",
"ssssssssssssssssssssss",
"ssssssssssssssssssssss",
"ssssssssssssssssssssss",
"ssssssssssssssssssssss",
"ssssssssssssssssssssss"
};
