/* XPM */
static char *spiral[] = {
/* columns rows colors chars-per-pixel */
"18 18 3 1 ",
"  c #0099CC",
". c white",
"X c None",
/* pixels */
"XXXXXXXXXXXXXXXXXX",
"X                X",
"X XXXXXXX XXXXXX X",
"X X....XX XXXXXX X",
"X X..XXXX XXXXXX X",
"X X.X.XXX XXXXXX X",
"X X.XX.XX XXXXXX X",
"X XXXXX.X XXXXXX X",
"X XXXXXXX        X",
"X XXXXXXX XXX XX X",
"X XXXXX.X XXX XX X",
"X X.XX.XX XXX XX X",
"X X.X.XXX     XX X",
"X X..XXXX XXX XX X",
"X X....XX XXX XX X",
"X XXXXXXX XXX XX X",
"X                X",
"XXXXXXXXXXXXXXXXXX"
};
