/* XPM */
static char *spr[] = {
/* columns rows colors chars-per-pixel */
"14 32 2 1 ",
"  c gray19",
". c None",
/* pixels */
"..............",
"..............",
"..............",
"..............",
"..............",
"              ",
"              ",
"              ",
"              ",
"              ",
"              ",
"              ",
"              ",
"              ",
"              ",
"              ",
"              ",
"              ",
"              ",
"              ",
"              ",
"              ",
"              ",
"              ",
"              ",
"              ",
"              ",
"..............",
"..............",
"..............",
"..............",
".............."
};
