/* XPM */
static char *spr_very_small[] = {
/* columns rows colors chars-per-pixel */
"3 32 2 1 ",
"  c gray19",
". c None",
/* pixels */
"...",
"...",
"...",
"...",
"...",
"   ",
"   ",
"   ",
"   ",
"   ",
"   ",
"   ",
"   ",
"   ",
"   ",
"   ",
"   ",
"   ",
"   ",
"   ",
"   ",
"   ",
"   ",
"   ",
"   ",
"   ",
"   ",
"...",
"...",
"...",
"...",
"..."
};
