/* XPM */
static char *spr_small[] = {
/* columns rows colors chars-per-pixel */
"6 32 2 1 ",
"  c gray19",
". c None",
/* pixels */
"......",
"......",
"......",
"......",
"......",
"      ",
"      ",
"      ",
"      ",
"      ",
"      ",
"      ",
"      ",
"      ",
"      ",
"      ",
"      ",
"      ",
"      ",
"      ",
"      ",
"      ",
"      ",
"      ",
"      ",
"      ",
"      ",
"......",
"......",
"......",
"......",
"......"
};
