/* XPM */
static char *spr_left[] = {
/* columns rows colors chars-per-pixel */
"8 32 2 1 ",
"  c gray19",
". c None",
/* pixels */
"........",
"........",
"........",
"........",
"........",
"...     ",
"...     ",
"...     ",
"...     ",
"...     ",
"...     ",
"...     ",
"...     ",
"...     ",
"...     ",
"...     ",
"...     ",
"...     ",
"...     ",
"...     ",
"...     ",
"...     ",
"...     ",
"...     ",
"...     ",
"...     ",
"...     ",
"........",
"........",
"........",
"........",
"........"
};
