/* XPM */
static char *submenu[] = {
/* columns rows colors chars-per-pixel */
"32 32 3 1 ",
"# c #81B7E1",
". c white",
"  c None",
/* pixels */
"                                ",
"                                ",
"                                ",
"                                ",
"                                ",
"                                ",
"                                ",
"                                ",
"                ....            ",
"                .###.           ",
"                 .###.          ",
"                  .###.         ",
"                   .###.        ",
"     ................###.       ",
"     .###################.      ",
"     .###################.      ",
"     ................###.       ",
"                   .###.        ",
"                  .###.         ",
"                 .###.          ",
"                .###.           ",
"                ....            ",
"                                ",
"                                ",
"                                ",
"                                ",
"                                ",
"                                ",
"                                ",
"                                ",
"                                ",
"                                "
};
