/* XPM */
static char *taglist_bg_focus[] = {
/* columns rows colors chars-per-pixel */
"72 32 2 1 ",
"  c #0099CC",
". c None",
/* pixels */
"........................................................................",
"........................................................................",
"........................................................................",
"........................................................................",
"........................................................................",
"........................................................................",
"........................................................................",
"........................................................................",
"........................................................................",
"........................................................................",
"........................................................................",
"........................................................................",
"........................................................................",
"........................................................................",
"........................................................................",
"........................................................................",
"........................................................................",
"........................................................................",
"........................................................................",
"........................................................................",
"........................................................................",
"........................................................................",
"........................................................................",
"........................................................................",
"                                                                        ",
"                                                                        ",
"                                                                        ",
"........................................................................",
"........................................................................",
"........................................................................",
"........................................................................",
"........................................................................"
};
