/* XPM */
static char *tilebottom[] = {
/* columns rows colors chars-per-pixel */
"18 18 3 1 ",
"  c #0099CC",
". c white",
"X c None",
/* pixels */
"XXXXXXXXXXXXXXXXXX",
"X                X",
"X XXXXXXXXXXXXXX X",
"X X....XXXX....X X",
"X X..XXXXXXXX..X X",
"X X.X.XXXXXX.X.X X",
"X X.XX.XXXX.XX.X X",
"X XXXXX.XX.XXXXX X",
"X XXXXXXXXXXXXXX X",
"X XXXXXXXXXXXXXX X",
"X                X",
"X XXXX XXXX XXXX X",
"X XXXX XXXX XXXX X",
"X                X",
"X XXXX XXXX XXXX X",
"X XXXX XXXX XXXX X",
"X                X",
"XXXXXXXXXXXXXXXXXX"
};
