/* XPM */
static char *tile[] = {
/* columns rows colors chars-per-pixel */
"18 18 3 1 ",
"  c #0099CC",
". c white",
"X c None",
/* pixels */
"XXXXXXXXXXXXXXXXXX",
"X                X",
"X XXXXXXXX XX XX X",
"X X....XXX XX XX X",
"X X..XXXXX XX XX X",
"X X.X.XXXX XX XX X",
"X X.XX.XXX       X",
"X XXXXX.XX XX XX X",
"X XXXXXXXX XX XX X",
"X XXXXXXXX XX XX X",
"X XXXXX.XX XX XX X",
"X X.XX.XXX       X",
"X X.X.XXXX XX XX X",
"X X..XXXXX XX XX X",
"X X....XXX XX XX X",
"X XXXXXXXX XX XX X",
"X                X",
"XXXXXXXXXXXXXXXXXX"
};
