/* XPM */
static char *tile[] = {
/* columns rows colors chars-per-pixel */
"18 18 3 1 ",
"  c #0099CC",
". c white",
"X c None",
/* pixels */
"XXXXXXXXXXXXXXXXXX",
"X                X",
"X XXXXXXXX XXXXX X",
"X X....XXX XXXXX X",
"X X..XXXXX XXXXX X",
"X X.X.XXXX XXXXX X",
"X X.XX.XXX       X",
"X XXXXX.XX XXXXX X",
"X XXXXXXXX XXXXX X",
"X XXXXXXXX XXXXX X",
"X XXXXX.XX XXXXX X",
"X X.XX.XXX       X",
"X X.X.XXXX XXXXX X",
"X X..XXXXX XXXXX X",
"X X....XXX XXXXX X",
"X XXXXXXXX XXXXX X",
"X                X",
"XXXXXXXXXXXXXXXXXX"
};
