/* XPM */
static char *uselesstileleft[] = {
/* columns rows colors chars-per-pixel */
"22 32 3 1 ",
"  c #0099CC",
". c white",
"X c None",
/* pixels */
"XXXXXXXXXXXXXXXXXXXXXX",
"XXXXXXXXXXXXXXXXXXXXXX",
"XXXXXXXXXXXXXXXXXXXXXX",
"XXXXXXXXXXXXXXXXXXXXXX",
"XXXXXXXXXXXXXXXXXXXXXX",
"XXXXXXXXXXXXXXXXXXXXXX",
"XXXXXXXXXXXXXXXXXXXXXX",
"XXXXXXXXXXXXXXXXXXXXXX",
"XXX                XXX",
"XXX XXXXXX XXXXXXX XXX",
"XXX XXXXXX XX....X XXX",
"XXX XXXXXX XXXX..X XXX",
"XXX XXXXXX XXX.X.X XXX",
"XXX        XX.XX.X XXX",
"XXX XXXXXX X.XXXXX XXX",
"XXX XXXXXX XXXXXXX XXX",
"XXX XXXXXX XXXXXXX XXX",
"XXX XXXXXX X.XXXXX XXX",
"XXX        XX.XX.X XXX",
"XXX XXXXXX XXX.X.X XXX",
"XXX XXXXXX XXXX..X XXX",
"XXX XXXXXX XX....X XXX",
"XXX XXXXXX XXXXXXX XXX",
"XXX                XXX",
"XXXXXXXXXXXXXXXXXXXXXX",
"XXXXXXXXXXXXXXXXXXXXXX",
"XXXXXXXXXXXXXXXXXXXXXX",
"XXXXXXXXXXXXXXXXXXXXXX",
"XXXXXXXXXXXXXXXXXXXXXX",
"XXXXXXXXXXXXXXXXXXXXXX",
"XXXXXXXXXXXXXXXXXXXXXX",
"XXXXXXXXXXXXXXXXXXXXXX"
};
