/* XPM */
static char *uselesstile[] = {
/* columns rows colors chars-per-pixel */
"22 32 3 1 ",
"  c #0099CC",
". c white",
"X c None",
/* pixels */
"XXXXXXXXXXXXXXXXXXXXXX",
"XXXXXXXXXXXXXXXXXXXXXX",
"XXXXXXXXXXXXXXXXXXXXXX",
"XXXXXXXXXXXXXXXXXXXXXX",
"XXXXXXXXXXXXXXXXXXXXXX",
"XXXXXXXXXXXXXXXXXXXXXX",
"XXXXXXXXXXXXXXXXXXXXXX",
"XXXXXXXXXXXXXXXXXXXXXX",
"XXX                XXX",
"XXX XXXXXXX XXXXXX XXX",
"XXX X....XX XXXXXX XXX",
"XXX X..XXXX XXXXXX XXX",
"XXX X.X.XXX XXXXXX XXX",
"XXX X.XX.XX        XXX",
"XXX XXXXX.X XXXXXX XXX",
"XXX XXXXXXX XXXXXX XXX",
"XXX XXXXXXX XXXXXX XXX",
"XXX XXXXX.X XXXXXX XXX",
"XXX X.XX.XX        XXX",
"XXX X.X.XXX XXXXXX XXX",
"XXX X..XXXX XXXXXX XXX",
"XXX X....XX XXXXXX XXX",
"XXX XXXXXXX XXXXXX XXX",
"XXX                XXX",
"XXXXXXXXXXXXXXXXXXXXXX",
"XXXXXXXXXXXXXXXXXXXXXX",
"XXXXXXXXXXXXXXXXXXXXXX",
"XXXXXXXXXXXXXXXXXXXXXX",
"XXXXXXXXXXXXXXXXXXXXXX",
"XXXXXXXXXXXXXXXXXXXXXX",
"XXXXXXXXXXXXXXXXXXXXXX",
"XXXXXXXXXXXXXXXXXXXXXX"
};
