/* XPM */
static char *uselesstilebottom[] = {
/* columns rows colors chars-per-pixel */
"22 32 3 1 ",
"  c #0099CC",
". c white",
"X c None",
/* pixels */
"XXXXXXXXXXXXXXXXXXXXXX",
"XXXXXXXXXXXXXXXXXXXXXX",
"XXXXXXXXXXXXXXXXXXXXXX",
"XXXXXXXXXXXXXXXXXXXXXX",
"XXXXXXXXXXXXXXXXXXXXXX",
"XXXXXXXXXXXXXXXXXXXXXX",
"XXXXXXXXXXXXXXXXXXXXXX",
"XXXXXXXXXXXXXXXXXXXXXX",
"XXX                XXX",
"XXX XXXXXXXXXXXXXX XXX",
"XXX X....XXXX....X XXX",
"XXX X..XXXXXXXX..X XXX",
"XXX X.X.XXXXXX.X.X XXX",
"XXX X.XX.XXXX.XX.X XXX",
"XXX XXXXX.XX.XXXXX XXX",
"XXX XXXXXXXXXXXXXX XXX",
"XXX                XXX",
"XXX XXXX XXXX XXXX XXX",
"XXX XXXX XXXX XXXX XXX",
"XXX XXXX XXXX XXXX XXX",
"XXX XXXX XXXX XXXX XXX",
"XXX XXXX XXXX XXXX XXX",
"XXX XXXX XXXX XXXX XXX",
"XXX                XXX",
"XXXXXXXXXXXXXXXXXXXXXX",
"XXXXXXXXXXXXXXXXXXXXXX",
"XXXXXXXXXXXXXXXXXXXXXX",
"XXXXXXXXXXXXXXXXXXXXXX",
"XXXXXXXXXXXXXXXXXXXXXX",
"XXXXXXXXXXXXXXXXXXXXXX",
"XXXXXXXXXXXXXXXXXXXXXX",
"XXXXXXXXXXXXXXXXXXXXXX"
};
